<?xml version="1.0" encoding="utf-8"?>
<!-- Generator: Adobe Illustrator 16.0.0, SVG Export Plug-In . SVG Version: 6.00 Build 0)  -->
<!DOCTYPE svg PUBLIC "-//W3C//DTD SVG 1.1//EN" "http://www.w3.org/Graphics/SVG/1.1/DTD/svg11.dtd">
<svg version="1.1" id="Layer_1" xmlns="http://www.w3.org/2000/svg" xmlns:xlink="http://www.w3.org/1999/xlink" x="0px" y="0px"
	 width="1000px" height="250px" viewBox="0 0 1000 250" enable-background="new 0 0 1000 250" xml:space="preserve">
<g>
	<path fill="#2A256E" d="M131.293,217.38c-19.139,0-37.692-26.369-50.913-51.193c-23.022,42.107-40.958,51.193-52.137,51.193
		v-18.303c5.853,0,21.134-12.687,39.254-47.639c0.985-1.903,1.952-3.816,2.896-5.739c-10.728-24.085-20.024-52.327-20.024-70.344
		c0-32.685,16.139-44.282,29.958-44.282c15.196,0,30.58,15.108,30.58,43.978c0,18.582-9.396,46.775-20.324,70.736
		c0.811,1.699,1.636,3.387,2.476,5.064c17.712,35.384,32.569,48.225,38.234,48.225V217.38z M80.327,49.375
		c-6.863,0-11.656,10.686-11.656,25.98c0,10.412,4.619,28.138,11.929,47.203c7.425-18.954,12.005-36.548,12.005-47.506
		C92.605,59.193,86.232,49.375,80.327,49.375z"/>
</g>
<g>
	<path fill="#2A256E" d="M234.343,217.38c-11.179,0-29.114-9.086-52.136-51.193c-13.222,24.824-31.774,51.193-50.914,51.193v-18.303
		c5.665,0,20.523-12.841,38.235-48.225c0.838-1.678,1.664-3.365,2.475-5.064c-10.928-23.961-20.325-52.154-20.325-70.736
		c0-21.855,10.504-43.978,30.578-43.978c13.822,0,29.96,11.597,29.96,44.282c0,18.017-9.295,46.259-20.024,70.346
		c0.945,1.921,1.912,3.834,2.897,5.737c18.118,34.952,33.401,47.639,39.253,47.639V217.38z M182.256,49.375
		c-5.903,0-12.275,9.817-12.275,25.676c0,10.958,4.579,28.552,12.005,47.506c7.31-19.064,11.929-36.791,11.929-47.203
		C193.916,60.062,189.122,49.375,182.256,49.375z"/>
</g>
<path fill="#2A256E" d="M249.429,138.893c0-43.288,33.051-78.686,73.565-78.686c22.39,0,43.286,10.237,57.361,28.147
	c10.874,14.289,17.058,32.413,17.058,50.539c0,13.004-3.199,26.652-8.743,37.742c-13.22,25.586-37.957,41.58-65.676,41.58
	C282.48,218.215,249.429,182.817,249.429,138.893z M259.023,138.893c0,38.595,28.786,69.938,63.971,69.938
	c24.095,0,45.845-14.499,57.361-36.463c4.904-10.021,7.462-21.747,7.462-33.476c0-15.994-5.331-31.772-14.714-44.355
	c-12.579-15.992-30.705-24.948-50.109-24.948C287.81,69.589,259.023,100.507,259.023,138.893z"/>
<path fill="#2A256E" d="M421.301,210.11V67.459c0-1.919,1.919-3.839,3.625-4.267l1.066-0.427c1.706,0,3.412,1.281,4.69,2.774
	l63.971,114.08l64.395-114.508c1.069-1.065,2.561-2.346,4.054-2.346l1.491,0.427c1.92,0.428,3.84,2.348,3.84,4.267l-0.427,142.651
	c0,2.559-2.134,4.693-4.904,4.693c-2.348,0-4.479-2.135-4.479-4.693V85.583l-59.917,105.764c-0.427,0.853-0.854,2.558-3.412,2.984
	c-2.346,0-3.838-0.854-4.693-2.984L431.108,86.01V210.11c0,2.559-2.345,4.693-4.69,4.693
	C423.86,214.804,421.301,212.669,421.301,210.11z M425.992,64.901v0.21h0.426L425.992,64.901z"/>
<path fill="#2A256E" d="M606.18,213.311c-0.639-0.642-0.852-1.707-0.852-3.2V67.459c0-2.348,1.279-4.694,4.264-4.694h81.028
	c2.347,0,5.118,2.346,5.118,4.694c0,2.557-2.771,5.115-5.118,5.115h-76.124v39.451h68.663c2.345,0,4.902,2.557,4.902,4.69
	c0,2.561-2.558,5.331-4.902,5.331h-68.663v83.374h76.124c2.347,0,5.118,2.561,5.118,4.69c0,2.559-2.771,4.693-5.118,4.693h-81.028
	C608.312,214.804,606.607,214.376,606.18,213.311z"/>
<path fill="#2A256E" d="M725.384,210.11V67.459c0-1.707,1.065-3.2,2.345-3.839c1.918-0.855,3.411-0.855,5.118,0.426l89.772,56.72
	V67.459c0-2.348,1.919-4.694,4.476-4.694c2.988,0,5.118,2.346,5.118,4.694V210.11c0,2.559-2.13,4.693-4.904,4.693
	c-2.771,0-4.689-2.135-4.689-4.693v-77.831l-88.066-56.08V210.11c0,2.559-1.706,4.693-4.266,4.693
	C727.302,214.804,725.384,212.669,725.384,210.11z"/>
<path fill="#2A256E" d="M867.402,67.459c0-2.558,2.346-4.904,4.476-4.904h94.678c2.987,0,4.692,2.346,4.692,4.904
	c0,2.557-1.705,5.115-4.692,5.115h-42.434V210.11c0,2.134-2.134,4.693-4.478,4.693c-2.771,0-4.904-2.56-4.904-4.693V72.574h-42.862
	C869.748,72.574,867.402,70.016,867.402,67.459z"/>
<path fill="none" d="M169.795,172.999c0.76,0.615-1.666-1.109-2.033-1.354"/>
</svg>
