<?xml version="1.0" encoding="utf-8"?>
<!-- Generator: Adobe Illustrator 16.0.0, SVG Export Plug-In . SVG Version: 6.00 Build 0)  -->
<!DOCTYPE svg PUBLIC "-//W3C//DTD SVG 1.1//EN" "http://www.w3.org/Graphics/SVG/1.1/DTD/svg11.dtd">
<svg version="1.1" xmlns="http://www.w3.org/2000/svg" xmlns:xlink="http://www.w3.org/1999/xlink" x="0px" y="0px" width="500px"
	 height="500px" viewBox="0 0 500 500" enable-background="new 0 0 500 500" xml:space="preserve">
<g id="Layer_1">
	<polygon fill="none" stroke="#1B8488" stroke-width="30" stroke-linejoin="round" stroke-miterlimit="10" points="250.5,47.676 
		316.262,180.924 463.311,202.292 356.902,306.012 382.024,452.467 250.5,383.318 118.976,452.467 144.095,306.012 37.689,202.292 
		184.737,180.924 	"/>
	<polygon fill="none" stroke="#1B8488" stroke-width="30" stroke-linejoin="round" stroke-miterlimit="10" points="249.5,47.676 
		315.262,180.924 462.311,202.292 355.902,306.012 381.024,452.467 249.5,383.318 117.976,452.467 143.095,306.012 36.689,202.292 
		183.737,180.924 	"/>
</g>
<g id="Layer_2">
	<path fill="#1B8488" d="M249.5,32.676c-5.709,0-10.924,3.241-13.451,8.361l-62.273,126.177L34.532,187.448
		c-5.65,0.821-10.344,4.779-12.109,10.209c-1.764,5.43-0.292,11.391,3.796,15.376l100.759,98.216l-23.786,138.682
		c-0.965,5.628,1.348,11.315,5.967,14.672c2.613,1.898,5.708,2.864,8.818,2.864c2.388,0,4.784-0.569,6.979-1.723L249.5,400.266"/>
</g>
</svg>
