<?xml version="1.0" encoding="utf-8"?>
<!-- Generator: Adobe Illustrator 16.0.0, SVG Export Plug-In . SVG Version: 6.00 Build 0)  -->
<!DOCTYPE svg PUBLIC "-//W3C//DTD SVG 1.1//EN" "http://www.w3.org/Graphics/SVG/1.1/DTD/svg11.dtd">
<svg version="1.1" id="Layer_1" xmlns="http://www.w3.org/2000/svg" xmlns:xlink="http://www.w3.org/1999/xlink" x="0px" y="0px"
	 width="600px" height="600px" viewBox="0 0 600 600" enable-background="new 0 0 600 600" xml:space="preserve">
<rect fill="#2A256E" width="600" height="600"/>
<path fill="#FFFFFF" d="M450.617,363.674c-2.329-4.494-4.614-9.011-6.845-13.546c25.331-56.865,47.275-123.537,47.275-166.069
	c0-77.161-38.098-104.54-70.729-104.54c-47.392,0-72.188,52.228-72.188,103.82c0,43.871,22.185,110.43,47.983,167
	c-1.915,4.008-3.868,7.992-5.846,11.952c-41.813,83.53-76.891,113.849-90.263,113.849c-13.375,0-48.449-30.318-90.262-113.849
	c-1.981-3.96-3.933-7.944-5.845-11.952c25.796-56.57,47.98-123.129,47.98-167c0-68.157-36.318-103.82-72.192-103.82
	c-32.628,0-70.726,27.379-70.726,104.54c0,42.532,21.945,109.205,47.27,166.063c-2.229,4.541-4.509,9.058-6.836,13.552
	c-42.775,82.515-78.854,112.466-92.67,112.466v43.21c26.39,0,68.732-21.45,123.083-120.857
	c31.213,58.604,75.014,120.857,120.197,120.857s88.982-62.254,120.202-120.857c54.348,99.407,96.686,120.857,123.075,120.857v-43.21
	C529.463,476.14,493.387,446.188,450.617,363.674z M152.167,184.059c0-36.108,11.317-61.333,27.52-61.333
	c13.94,0,28.986,23.173,28.986,60.613c0,25.873-10.814,67.408-28.344,112.153C163.071,250.482,152.167,208.638,152.167,184.059z
	 M419.678,295.492c-17.525-44.745-28.34-86.28-28.34-112.153c0-37.439,15.045-60.613,28.98-60.613
	c16.204,0,27.521,25.225,27.521,61.333C447.84,208.638,436.936,250.482,419.678,295.492z"/>
</svg>
